# xmcd
#
# Track frame offsets:
#	150
#	13080
#	29234
#	47304
#	64201
#	79220
#	92642
#	109839
#	124276
#	136958
#
# Disc length: 1993 seconds
#
# Revision: 0
# Processed by: cddbd v1.4PL0 Copyright (c) Steve Scherf et al.
# Submitted via: EasyCDDAExtractor 4.5.0.2
#
DISCID=8807c70a
DTITLE=Woody Lee - Get Over It
DYEAR=1995
DGENRE=Country
TTITLE0=I Can Do That
TTITLE1=Get Over It
TTITLE2=I Like The Sound Of That
TTITLE3=Prove My Love
TTITLE4=Lonely Needin' Lovin' 
TTITLE5=Salt And Water
TTITLE6=I'm On Your Side
TTITLE7=King Of Pain
TTITLE8=Hold It Right There
TTITLE9=Life In The Slow Lane
EXTD=
EXTT0=
EXTT1=
EXTT2=
EXTT3=
EXTT4=
EXTT5=
EXTT6=
EXTT7=
EXTT8=
EXTT9=
PLAYORDER=
